<svg width="36" height="36" viewBox="0 0 36 36" fill="none" xmlns="http://www.w3.org/2000/svg">
<g filter="url(#filter0_d_17161_147862)">
<rect x="2" y="1" width="32" height="32" rx="4" fill="white" shape-rendering="crispEdges"/>
<rect x="2.5" y="1.5" width="31" height="31" rx="3.5" stroke="#EBEFF5" shape-rendering="crispEdges"/>
<path d="M14.0211 12.2632H11.5058C13.0179 10.1855 15.4304 8.95373 18 8.94737C18.4503 8.94696 18.8998 8.98287 19.3443 9.05469C19.6023 9.09707 19.8459 8.92227 19.8883 8.66427C19.9307 8.40621 19.7559 8.16266 19.4979 8.12027C19.0026 8.03996 18.5017 7.99977 18 8C15.2214 8.00468 12.6001 9.28991 10.8947 11.4836V9.13684C10.8947 8.87525 10.6826 8.66316 10.4211 8.66316C10.1595 8.66316 9.94737 8.87525 9.94737 9.13684V12.7368C9.9472 12.9983 10.1591 13.2104 10.4205 13.2105H14.0211C14.2826 13.2105 14.4947 12.9984 14.4947 12.7368C14.4947 12.4753 14.2826 12.2632 14.0211 12.2632ZM13.7374 20.5053C13.4759 20.5051 13.2633 20.717 13.2632 20.9784V23.4942C11.1855 21.9821 9.95373 19.5696 9.94737 17C9.94696 16.5497 9.98287 16.1002 10.0547 15.6557C10.0941 15.3972 9.91661 15.1556 9.65808 15.1162C9.40372 15.0773 9.16491 15.2488 9.12033 15.5022C9.04001 15.9974 8.99977 16.4983 9 17C9.00468 19.7786 10.2899 22.3999 12.4836 24.1053H10.1368C9.87525 24.1053 9.66316 24.3174 9.66316 24.5789C9.66316 24.8405 9.87525 25.0526 10.1368 25.0526H13.7368C13.9983 25.0528 14.2104 24.8409 14.2105 24.5795V20.9789C14.2107 20.7175 13.9988 20.5054 13.7374 20.5053ZM25.5795 20.7895H21.9789C21.7174 20.7895 21.5053 21.0016 21.5053 21.2632C21.5053 21.5247 21.7174 21.7368 21.9789 21.7368H24.4942C22.9821 23.8145 20.5696 25.0463 18 25.0526C17.5497 25.053 17.1002 25.0171 16.6557 24.9453C16.3977 24.9029 16.1541 25.0777 16.1117 25.3357C16.0693 25.5938 16.2441 25.8373 16.5021 25.8797C16.9974 25.96 17.4983 26.0002 18 26C20.7786 25.9953 23.3999 24.7101 25.1053 22.5164V24.8632C25.1053 25.1247 25.3174 25.3368 25.5789 25.3368C25.8405 25.3368 26.0526 25.1247 26.0526 24.8632V21.2632C26.0528 21.0017 25.8409 20.7896 25.5795 20.7895ZM25.8632 8.94737H22.2632C22.0017 8.9472 21.7896 9.15906 21.7895 9.42048V13.0211C21.7895 13.2826 22.0016 13.4947 22.2632 13.4947C22.5247 13.4947 22.7368 13.2826 22.7368 13.0211V10.5003C23.65 11.1562 24.4118 12.0002 24.9711 12.9756C25.6809 14.1979 26.0541 15.5865 26.0526 17C26.053 17.4503 26.0172 17.8998 25.9453 18.3443C25.9024 18.6016 26.0762 18.845 26.3335 18.8879L26.3357 18.8883C26.3614 18.8928 26.3874 18.8949 26.4134 18.8948C26.6451 18.8944 26.8424 18.7265 26.8797 18.4978C26.96 18.0026 27.0002 17.5017 27 17C27.0013 15.4206 26.5844 13.8689 25.7917 12.5028C25.2148 11.4919 24.4433 10.6055 23.5217 9.89474H25.8632C26.1247 9.89474 26.3368 9.68264 26.3368 9.42105C26.3368 9.15946 26.1247 8.94737 25.8632 8.94737Z" fill="#0079CD" stroke="#0079CD" stroke-width="0.27"/>
</g>
<defs>
<filter id="filter0_d_17161_147862" x="0" y="0" width="36" height="36" filterUnits="userSpaceOnUse" color-interpolation-filters="sRGB">
<feFlood flood-opacity="0" result="BackgroundImageFix"/>
<feColorMatrix in="SourceAlpha" type="matrix" values="0 0 0 0 0 0 0 0 0 0 0 0 0 0 0 0 0 0 127 0" result="hardAlpha"/>
<feOffset dy="1"/>
<feGaussianBlur stdDeviation="1"/>
<feComposite in2="hardAlpha" operator="out"/>
<feColorMatrix type="matrix" values="0 0 0 0 0 0 0 0 0 0 0 0 0 0 0 0 0 0 0.17 0"/>
<feBlend mode="normal" in2="BackgroundImageFix" result="effect1_dropShadow_17161_147862"/>
<feBlend mode="normal" in="SourceGraphic" in2="effect1_dropShadow_17161_147862" result="shape"/>
</filter>
</defs>
</svg>
