<svg width="36" height="36" viewBox="0 0 36 36" fill="none" xmlns="http://www.w3.org/2000/svg">
<g filter="url(#filter0_d_17161_147883)">
<rect x="2" y="1" width="32" height="32" rx="4" fill="white" shape-rendering="crispEdges"/>
<rect x="2.5" y="1.5" width="31" height="31" rx="3.5" stroke="#EBEFF5" shape-rendering="crispEdges"/>
<path d="M26.4381 12.0947L12.2568 12.0947" stroke="#0079CD" stroke-linejoin="round"/>
<path d="M12.8974 21.8749L12.7565 9.55415L27.6414 9.55434L26.1781 12.3817L26.1195 12.495L26.1223 12.6226L26.3375 22.3474L26.3375 25.1311L14.8469 25.1307L12.8974 21.8749Z" stroke="#0079CD"/>
<path d="M20.3596 17.626L20.7623 17.3296L20.5408 17.0287C20.6017 16.8621 20.6555 16.6872 20.7007 16.5031C20.9298 16.8488 21.1901 17.2553 21.4501 17.6894C21.8243 18.3142 22.1924 18.9873 22.4654 19.6132C22.7029 20.1576 22.8494 20.6246 22.8882 20.9763C22.8423 20.8554 22.7922 20.7351 22.74 20.6169C22.5145 20.1063 22.2179 19.5703 21.9275 19.0881C21.6361 18.6043 21.3455 18.1657 21.1282 17.8486C21.0194 17.6898 20.9285 17.5609 20.8646 17.4713C20.8326 17.4265 20.8074 17.3915 20.79 17.3675L20.7699 17.3399L20.7645 17.3325L20.763 17.3305L20.7625 17.3299L20.7624 17.3297C20.7624 17.3296 20.7623 17.3296 20.3596 17.626ZM17.8214 21.2153C17.821 21.1943 17.8208 21.1733 17.8208 21.1522C17.8208 20.8279 17.9462 20.5397 18.1948 20.2103C18.374 19.9728 18.5845 19.7522 18.8289 19.4963C18.9474 19.3721 19.0739 19.2397 19.2086 19.0929C19.3978 18.8867 19.5899 18.665 19.773 18.421C19.6118 19.1113 19.2462 19.5835 18.8539 20.0054C18.7783 20.0867 18.6952 20.1723 18.6096 20.2606C18.4126 20.4635 18.2024 20.68 18.0415 20.8874C17.9624 20.9894 17.8872 21.0983 17.8214 21.2153Z" fill="white" stroke="#0079CD"/>
<path d="M19.96 21.7921C20.185 21.5601 20.4248 21.2783 20.6004 20.908C20.6323 20.9574 20.6643 21.0079 20.6963 21.0592C20.8803 21.3539 21.0578 21.6659 21.1876 21.9514C21.3246 22.2527 21.3802 22.4645 21.3802 22.5785C21.3802 23.0154 21.2345 23.2993 21.0558 23.4739C20.8716 23.654 20.6204 23.7492 20.3607 23.7492C20.101 23.7492 19.8499 23.654 19.6656 23.4739C19.4869 23.2993 19.3413 23.0154 19.3413 22.5785C19.3413 22.5081 19.3652 22.4303 19.469 22.3006C19.548 22.202 19.6342 22.1171 19.745 22.0078C19.8078 21.946 19.8784 21.8764 19.96 21.7921Z" fill="#0079CD" stroke="#0079CD"/>
<path d="M10.4751 20.769L8.00173 20.9591L8.0051 14.0551L10.4751 14.3181L10.4751 20.769Z" stroke="#0079CD"/>
<path d="M10.2368 19.499L10.2368 15.499L15.7368 15.499C16.013 15.499 16.2368 15.7229 16.2368 15.999L16.2368 18.999C16.2368 19.2752 16.013 19.499 15.7368 19.499L10.2368 19.499Z" fill="white" stroke="#0079CD"/>
<mask id="path-9-inside-1_17161_147883" fill="white">
<path d="M14.4445 17.1758C14.1893 17.1758 13.9824 17.3827 13.9824 17.6379L13.9824 17.7942C13.9824 18.0494 14.1893 18.2563 14.4445 18.2563C14.6997 18.2563 14.9066 18.0494 14.9066 17.7942L14.9066 17.6379C14.9066 17.3827 14.6997 17.1758 14.4445 17.1758Z"/>
</mask>
<path d="M14.4445 17.1758C14.1893 17.1758 13.9824 17.3827 13.9824 17.6379L13.9824 17.7942C13.9824 18.0494 14.1893 18.2563 14.4445 18.2563C14.6997 18.2563 14.9066 18.0494 14.9066 17.7942L14.9066 17.6379C14.9066 17.3827 14.6997 17.1758 14.4445 17.1758Z" fill="#0079CD"/>
<path d="M14.9824 17.6379L14.9824 17.7942L12.9824 17.7942L12.9824 17.6379L14.9824 17.6379ZM13.9066 17.7942L13.9066 17.6379L15.9066 17.6379L15.9066 17.7942L13.9066 17.7942ZM13.9066 17.6379C13.9066 17.9349 14.1474 18.1758 14.4445 18.1758L14.4445 16.1758C15.252 16.1758 15.9066 16.8304 15.9066 17.6379L13.9066 17.6379ZM14.4445 17.2563C14.1474 17.2563 13.9066 17.4971 13.9066 17.7942L15.9066 17.7942C15.9066 18.6017 15.252 19.2563 14.4445 19.2563L14.4445 17.2563ZM14.9824 17.7942C14.9824 17.4971 14.7416 17.2563 14.4445 17.2563L14.4445 19.2563C13.637 19.2563 12.9824 18.6017 12.9824 17.7942L14.9824 17.7942ZM12.9824 17.6379C12.9824 16.8304 13.637 16.1758 14.4445 16.1758L14.4445 18.1758C14.7416 18.1758 14.9824 17.9349 14.9824 17.6379L12.9824 17.6379Z" fill="#0079CD" mask="url(#path-9-inside-1_17161_147883)"/>
</g>
<defs>
<filter id="filter0_d_17161_147883" x="0" y="0" width="36" height="36" filterUnits="userSpaceOnUse" color-interpolation-filters="sRGB">
<feFlood flood-opacity="0" result="BackgroundImageFix"/>
<feColorMatrix in="SourceAlpha" type="matrix" values="0 0 0 0 0 0 0 0 0 0 0 0 0 0 0 0 0 0 127 0" result="hardAlpha"/>
<feOffset dy="1"/>
<feGaussianBlur stdDeviation="1"/>
<feComposite in2="hardAlpha" operator="out"/>
<feColorMatrix type="matrix" values="0 0 0 0 0 0 0 0 0 0 0 0 0 0 0 0 0 0 0.17 0"/>
<feBlend mode="normal" in2="BackgroundImageFix" result="effect1_dropShadow_17161_147883"/>
<feBlend mode="normal" in="SourceGraphic" in2="effect1_dropShadow_17161_147883" result="shape"/>
</filter>
</defs>
</svg>
