<svg width="253" height="273" viewBox="0 0 253 273" fill="none" xmlns="http://www.w3.org/2000/svg">
<rect x="26.3427" y="184.952" width="197.975" height="42.5568" fill="#747273" stroke="black" stroke-width="0.935313"/>
<path d="M31.1042 227.618C31.0985 227.579 31.0932 227.542 31.0881 227.507H219.674C219.67 227.547 219.666 227.59 219.661 227.634C219.618 228.045 219.55 228.639 219.451 229.373C219.252 230.841 218.925 232.864 218.418 235.086C217.398 239.554 215.665 244.729 212.827 247.847C209.661 251.325 203.974 253.5 198.992 254.803C196.515 255.451 194.24 255.876 192.583 256.14C191.755 256.272 191.083 256.363 190.618 256.421C190.386 256.45 190.205 256.471 190.083 256.484C190.055 256.487 190.03 256.49 190.008 256.492C189.983 256.495 189.962 256.497 189.945 256.499L189.911 256.503L189.903 256.503L189.901 256.504L189.9 256.504L189.729 256.52L189.609 256.645L175.172 271.622H74.473L59.5672 256.639L59.4608 256.532L59.3119 256.508L59.2357 256.969L59.3119 256.508L59.3115 256.508L59.3098 256.507L59.3025 256.506L59.2721 256.501C59.245 256.496 59.2042 256.489 59.1505 256.48C59.0432 256.461 58.8841 256.432 58.6791 256.393C58.2691 256.315 57.6752 256.196 56.9431 256.033C55.4783 255.708 53.4625 255.208 51.2586 254.511C46.8274 253.109 41.725 250.936 38.7629 247.838C35.8082 244.749 33.8639 239.569 32.6589 235.093C32.0595 232.867 31.6487 230.837 31.3877 229.363C31.2572 228.627 31.1644 228.03 31.1042 227.618Z" stroke="black" stroke-width="0.935313"/>
<path d="M176.696 1.3125H171.395L221.98 100.456H243.648L176.696 1.3125Z" stroke="black" stroke-width="0.935313"/>
<path d="M171.318 1.15625H164.693L213.874 100.455H221.98L171.318 1.15625Z" stroke="black" stroke-width="0.935313"/>
<path d="M164.616 1H159.316L186.284 53.1437L197.742 100.455H214.188L164.616 1Z" stroke="black" stroke-width="0.935313"/>
<path d="M77.5525 1.47656H82.8526L32.2677 100.62H10.5996L77.5525 1.47656Z" stroke="black" stroke-width="0.935313"/>
<path d="M82.9323 1.32031H89.5575L40.3756 100.619H32.2695L82.9323 1.32031Z" stroke="black" stroke-width="0.935313"/>
<path d="M89.6341 1.16406H94.9342L67.966 53.3078L53.0789 100.619H40.0625L89.6341 1.16406Z" stroke="black" stroke-width="0.935313"/>
<path d="M226.034 74.4274L215.512 58.7609L222.76 53.3828L233.906 68.5037L226.034 74.4274Z" stroke="black" stroke-width="0.935313"/>
<path d="M236.242 70.9915L221.121 49.791L224.94 47.2969L240.217 68.0297L236.242 70.9915Z" stroke="black" stroke-width="1.55886"/>
<path d="M67.9655 53.6979L94.9337 1.32031H159.392L186.75 53.6979L190.336 69.3644L216.135 63.4407L225.098 56.3479L231.723 65.4672L221.591 71.7026L198.052 84.4853L202.807 111.142V188.851C202.807 188.851 199.923 248.633 165.628 248.633H85.7365C51.5196 248.633 49.8828 188.851 49.8828 188.851V111.142L67.9655 53.6979Z" fill="url(#paint0_linear_16138_28728)" stroke="black" stroke-width="2.33828"/>
<rect x="0.467657" y="124.468" width="11.2238" height="47.0774" fill="#575659" stroke="black" stroke-width="0.935313"/>
<rect x="10.288" y="179.343" width="39.5949" height="5.61188" stroke="black" stroke-width="0.935313"/>
<rect x="10.288" y="111.061" width="39.5949" height="5.61188" stroke="black" stroke-width="0.935313"/>
<rect x="10.288" y="116.679" width="17.4592" height="62.666" fill="#B3B1B2" stroke="black" stroke-width="0.935313"/>
<line x1="27.2802" y1="100.773" x2="27.2802" y2="111.062" stroke="black" stroke-width="0.935313"/>
<path d="M44.2734 100.773L44.2734 120.025L41.5454 122.442L41.5454 171.935L44.2734 174.196L44.2734 179.418" stroke="black" stroke-width="0.935313"/>
<rect x="-0.467657" y="0.467657" width="11.2238" height="47.0774" transform="matrix(-1 0 0 1 251.908 124)" fill="#575659" stroke="black" stroke-width="0.935313"/>
<rect x="-0.467657" y="0.467657" width="39.5949" height="5.61188" transform="matrix(-1 0 0 1 242.088 178.875)" stroke="black" stroke-width="0.935313"/>
<rect x="-0.467657" y="0.467657" width="39.5949" height="5.61188" transform="matrix(-1 0 0 1 242.088 110.594)" stroke="black" stroke-width="0.935313"/>
<rect x="-0.467657" y="0.467657" width="17.4592" height="62.666" transform="matrix(-1 0 0 1 242.088 116.211)" fill="#B3B1B2" stroke="black" stroke-width="0.935313"/>
<line y1="-0.467657" x2="10.2884" y2="-0.467657" transform="matrix(4.37114e-08 1 1 -4.37114e-08 226.031 100.773)" stroke="black" stroke-width="0.935313"/>
<path d="M208.57 100.773L208.57 120.025L211.298 122.442L211.298 171.935L208.57 174.196L208.57 179.418" stroke="black" stroke-width="0.935313"/>
<rect x="85.7352" y="249.179" width="5.14422" height="22.4475" fill="#666161" stroke="black" stroke-width="0.935313"/>
<rect x="44.2684" y="259.157" width="3.58536" height="161.965" transform="rotate(-90 44.2684 259.157)" fill="#666161" stroke="black" stroke-width="0.935313"/>
<rect x="158.532" y="249.179" width="5.14422" height="22.4475" fill="#666161" stroke="black" stroke-width="0.935313"/>
<defs>
<linearGradient id="paint0_linear_16138_28728" x1="204" y1="124.516" x2="50" y2="124.516" gradientUnits="userSpaceOnUse">
<stop stop-color="#C8C8C8"/>
<stop offset="0.452225" stop-color="#EEEEEE"/>
<stop offset="0.56739" stop-color="#EEEEEE"/>
<stop offset="1" stop-color="#C8C8C8"/>
</linearGradient>
</defs>
</svg>
