<svg width="18" height="20" viewBox="0 0 18 20" fill="none" xmlns="http://www.w3.org/2000/svg">
<rect x="1.521" y="1.95068" width="14.4146" height="16.6906" fill="white"/>
<path d="M15.0961 1.41102H12.8038C12.6086 1.16412 12.2639 0.999512 11.8694 0.999512H6.13015C5.73563 0.999512 5.39095 1.16412 5.19577 1.41102H2.9034C1.91502 1.41102 1.10938 2.04969 1.10938 2.83321V17.5785C1.10938 18.362 1.91502 19.0007 2.9034 19.0007H15.0961C16.0845 19.0007 16.8901 18.362 16.8901 17.5785V2.83321C16.8901 2.04969 16.0845 1.41102 15.0961 1.41102ZM5.85607 1.87521C5.85607 1.75669 5.98065 1.65793 6.13015 1.65793H11.8694C12.0189 1.65793 12.1435 1.75669 12.1435 1.87521V3.2513C12.1435 3.36982 12.0189 3.46858 11.8694 3.46858H6.13015C5.98065 3.46858 5.85607 3.36982 5.85607 3.2513V1.87521ZM16.0596 17.5785C16.0596 17.9999 15.6277 18.3422 15.0961 18.3422H2.9034C2.37184 18.3422 1.93994 17.9999 1.93994 17.5785V2.83321C1.93994 2.41182 2.37184 2.06944 2.9034 2.06944H5.0255V3.2513C5.0255 3.73524 5.51969 4.127 6.13015 4.127H11.8694C12.4798 4.127 12.974 3.73524 12.974 3.2513V2.06944H15.0961C15.6277 2.06944 16.0596 2.41182 16.0596 2.83321V17.5785Z" fill="#0079CD" stroke="#0079CD" stroke-width="0.455198"/>
<path d="M12.976 7.34961H4.74452C4.5727 7.34961 4.43213 7.49792 4.43213 7.6792C4.43213 7.86047 4.5727 8.00879 4.74452 8.00879H12.9791C13.1509 8.00879 13.2915 7.86047 13.2915 7.6792C13.2915 7.49792 13.1509 7.34961 12.976 7.34961ZM12.976 9.26782H4.74452C4.5727 9.26782 4.43213 9.41614 4.43213 9.59741C4.43213 9.77869 4.5727 9.927 4.74452 9.927H12.9791C13.1509 9.927 13.2915 9.77869 13.2915 9.59741C13.2915 9.41614 13.1509 9.26782 12.976 9.26782ZM12.976 11.1893H4.74452C4.5727 11.1893 4.43213 11.3376 4.43213 11.5189C4.43213 11.7002 4.5727 11.8485 4.74452 11.8485H12.9791C13.1509 11.8485 13.2915 11.7002 13.2915 11.5189C13.2915 11.3376 13.1509 11.1893 12.976 11.1893ZM12.976 13.1108H4.74452C4.5727 13.1108 4.43213 13.2592 4.43213 13.4404C4.43213 13.6217 4.5727 13.77 4.74452 13.77H12.9791C13.1509 13.77 13.2915 13.6217 13.2915 13.4404C13.2915 13.2592 13.1509 13.1108 12.976 13.1108ZM12.976 15.0291H4.74452C4.5727 15.0291 4.43213 15.1774 4.43213 15.3586C4.43213 15.5399 4.5727 15.6882 4.74452 15.6882H12.9791C13.1509 15.6882 13.2915 15.5399 13.2915 15.3586C13.2915 15.1774 13.1509 15.0291 12.976 15.0291Z" fill="#0079CD"/>
</svg>
