<svg width="20" height="20" viewBox="0 0 20 20" fill="none" xmlns="http://www.w3.org/2000/svg">
<path d="M6.02105 5.26316H3.50581C5.01787 3.18547 7.43035 1.95373 10 1.94737C10.4503 1.94696 10.8998 1.98287 11.3443 2.05469C11.6023 2.09707 11.8459 1.92227 11.8883 1.66427C11.9307 1.40621 11.7559 1.16266 11.4979 1.12027C11.0026 1.03996 10.5017 0.99977 10 1C7.22144 1.00468 4.6001 2.28991 2.89474 4.48359V2.13684C2.89474 1.87525 2.68264 1.66316 2.42105 1.66316C2.15946 1.66316 1.94737 1.87525 1.94737 2.13684V5.73684C1.9472 5.99832 2.15906 6.21035 2.42047 6.21053H6.02105C6.28264 6.21053 6.49474 5.99843 6.49474 5.73684C6.49474 5.47525 6.28264 5.26316 6.02105 5.26316ZM5.73742 13.5053C5.47595 13.5051 5.26333 13.717 5.26316 13.9784V16.4942C3.18547 14.9821 1.95373 12.5696 1.94737 10C1.94696 9.54973 1.98287 9.10016 2.05469 8.65568C2.09412 8.39721 1.91661 8.15563 1.65808 8.11619C1.40372 8.07734 1.16491 8.24878 1.12033 8.50222C1.04001 8.99741 0.99977 9.49833 1 10C1.00468 12.7786 2.28991 15.3999 4.48359 17.1053H2.13684C1.87525 17.1053 1.66316 17.3174 1.66316 17.5789C1.66316 17.8405 1.87525 18.0526 2.13684 18.0526H5.73684C5.99832 18.0528 6.21035 17.8409 6.21053 17.5795V13.9789C6.2107 13.7175 5.99884 13.5054 5.73742 13.5053ZM17.5795 13.7895H13.9789C13.7174 13.7895 13.5053 14.0016 13.5053 14.2632C13.5053 14.5247 13.7174 14.7368 13.9789 14.7368H16.4942C14.9821 16.8145 12.5696 18.0463 10 18.0526C9.54973 18.053 9.10016 18.0171 8.65568 17.9453C8.39767 17.9029 8.15412 18.0777 8.11168 18.3357C8.0693 18.5938 8.24409 18.8373 8.5021 18.8797C8.99735 18.96 9.49827 19.0002 10 19C12.7786 18.9953 15.3999 17.7101 17.1053 15.5164V17.8632C17.1053 18.1247 17.3174 18.3368 17.5789 18.3368C17.8405 18.3368 18.0526 18.1247 18.0526 17.8632V14.2632C18.0528 14.0017 17.8409 13.7896 17.5795 13.7895ZM17.8632 1.94737H14.2632C14.0017 1.9472 13.7896 2.15906 13.7895 2.42048V6.02105C13.7895 6.28264 14.0016 6.49474 14.2632 6.49474C14.5247 6.49474 14.7368 6.28264 14.7368 6.02105V3.50032C15.65 4.1562 16.4118 5.00024 16.9711 5.97559C17.6809 7.19791 18.0541 8.58652 18.0526 10C18.053 10.4503 18.0172 10.8998 17.9453 11.3443C17.9024 11.6016 18.0762 11.845 18.3335 11.8879L18.3357 11.8883C18.3614 11.8928 18.3874 11.8949 18.4134 11.8948C18.6451 11.8944 18.8424 11.7265 18.8797 11.4978C18.96 11.0026 19.0002 10.5017 19 10C19.0013 8.42057 18.5844 6.8689 17.7917 5.50278C17.2148 4.49192 16.4433 3.60549 15.5217 2.89474H17.8632C18.1247 2.89474 18.3368 2.68264 18.3368 2.42105C18.3368 2.15946 18.1247 1.94737 17.8632 1.94737Z" fill="#0079CD" stroke="#0079CD" stroke-width="0.27"/>
</svg>
